<mxfile host="app.diagrams.net" modified="2021-03-12T00:51:39.892Z" agent="5.0 (Windows NT 10.0; WOW64) AppleWebKit/537.36 (KHTML, like Gecko) coc_coc_browser/93.0.148 Chrome/87.0.4280.148 Safari/537.36" etag="pqDPiiHcmJekZ6o-w0lM" version="14.4.7" type="github">
  <diagram id="ElvGM4AqcIiF2CNCAWFF" name="Trang-1">
    <mxGraphModel dx="1554" dy="849" grid="0" gridSize="10" guides="1" tooltips="1" connect="1" arrows="1" fold="1" page="1" pageScale="1" pageWidth="4681" pageHeight="3300" math="0" shadow="0">
      <root>
        <mxCell id="0" />
        <mxCell id="1" parent="0" />
        <mxCell id="BvtwiJHm_yUEEP929_Tn-1" style="edgeStyle=orthogonalEdgeStyle;rounded=0;orthogonalLoop=1;jettySize=auto;html=1;strokeWidth=2;strokeColor=#0000FF;" edge="1" parent="1" source="BvtwiJHm_yUEEP929_Tn-2" target="BvtwiJHm_yUEEP929_Tn-40">
          <mxGeometry relative="1" as="geometry">
            <Array as="points">
              <mxPoint x="2733" y="677" />
              <mxPoint x="2733" y="669" />
            </Array>
          </mxGeometry>
        </mxCell>
        <mxCell id="BvtwiJHm_yUEEP929_Tn-2" value="Agency" style="swimlane;fontStyle=0;childLayout=stackLayout;horizontal=1;startSize=26;fillColor=none;horizontalStack=0;resizeParent=1;resizeParentMax=0;resizeLast=0;collapsible=1;marginBottom=0;" vertex="1" parent="1">
          <mxGeometry x="2434" y="586" width="140" height="182" as="geometry" />
        </mxCell>
        <mxCell id="BvtwiJHm_yUEEP929_Tn-3" value="tag" style="text;strokeColor=none;fillColor=none;align=left;verticalAlign=top;spacingLeft=4;spacingRight=4;overflow=hidden;rotatable=0;points=[[0,0.5],[1,0.5]];portConstraint=eastwest;" vertex="1" parent="BvtwiJHm_yUEEP929_Tn-2">
          <mxGeometry y="26" width="140" height="26" as="geometry" />
        </mxCell>
        <mxCell id="BvtwiJHm_yUEEP929_Tn-4" value="parent&#xa;" style="text;strokeColor=none;fillColor=none;align=left;verticalAlign=top;spacingLeft=4;spacingRight=4;overflow=hidden;rotatable=0;points=[[0,0.5],[1,0.5]];portConstraint=eastwest;" vertex="1" parent="BvtwiJHm_yUEEP929_Tn-2">
          <mxGeometry y="52" width="140" height="26" as="geometry" />
        </mxCell>
        <mxCell id="BvtwiJHm_yUEEP929_Tn-5" value="account&#xa;" style="text;strokeColor=none;fillColor=none;align=left;verticalAlign=top;spacingLeft=4;spacingRight=4;overflow=hidden;rotatable=0;points=[[0,0.5],[1,0.5]];portConstraint=eastwest;" vertex="1" parent="BvtwiJHm_yUEEP929_Tn-2">
          <mxGeometry y="78" width="140" height="26" as="geometry" />
        </mxCell>
        <mxCell id="BvtwiJHm_yUEEP929_Tn-6" value="level" style="text;strokeColor=none;fillColor=none;align=left;verticalAlign=top;spacingLeft=4;spacingRight=4;overflow=hidden;rotatable=0;points=[[0,0.5],[1,0.5]];portConstraint=eastwest;" vertex="1" parent="BvtwiJHm_yUEEP929_Tn-2">
          <mxGeometry y="104" width="140" height="26" as="geometry" />
        </mxCell>
        <mxCell id="BvtwiJHm_yUEEP929_Tn-7" style="edgeStyle=orthogonalEdgeStyle;rounded=0;orthogonalLoop=1;jettySize=auto;html=1;strokeWidth=2;strokeColor=#0000FF;" edge="1" parent="BvtwiJHm_yUEEP929_Tn-2" source="BvtwiJHm_yUEEP929_Tn-2" target="BvtwiJHm_yUEEP929_Tn-4">
          <mxGeometry relative="1" as="geometry">
            <Array as="points">
              <mxPoint x="70" y="-40" />
              <mxPoint x="160" y="-40" />
              <mxPoint x="160" y="65" />
            </Array>
          </mxGeometry>
        </mxCell>
        <mxCell id="BvtwiJHm_yUEEP929_Tn-8" value="ancestors" style="text;strokeColor=none;fillColor=none;align=left;verticalAlign=top;spacingLeft=4;spacingRight=4;overflow=hidden;rotatable=0;points=[[0,0.5],[1,0.5]];portConstraint=eastwest;" vertex="1" parent="BvtwiJHm_yUEEP929_Tn-2">
          <mxGeometry y="130" width="140" height="26" as="geometry" />
        </mxCell>
        <mxCell id="BvtwiJHm_yUEEP929_Tn-9" style="edgeStyle=orthogonalEdgeStyle;rounded=0;orthogonalLoop=1;jettySize=auto;html=1;strokeWidth=2;strokeColor=#0000FF;" edge="1" parent="BvtwiJHm_yUEEP929_Tn-2" target="BvtwiJHm_yUEEP929_Tn-8">
          <mxGeometry relative="1" as="geometry">
            <mxPoint x="89" as="sourcePoint" />
            <Array as="points">
              <mxPoint x="89" />
              <mxPoint x="89" y="-23" />
              <mxPoint x="185" y="-23" />
              <mxPoint x="185" y="143" />
            </Array>
          </mxGeometry>
        </mxCell>
        <mxCell id="BvtwiJHm_yUEEP929_Tn-10" value="address" style="text;strokeColor=none;fillColor=none;align=left;verticalAlign=top;spacingLeft=4;spacingRight=4;overflow=hidden;rotatable=0;points=[[0,0.5],[1,0.5]];portConstraint=eastwest;" vertex="1" parent="BvtwiJHm_yUEEP929_Tn-2">
          <mxGeometry y="156" width="140" height="26" as="geometry" />
        </mxCell>
        <mxCell id="BvtwiJHm_yUEEP929_Tn-11" style="edgeStyle=orthogonalEdgeStyle;rounded=0;orthogonalLoop=1;jettySize=auto;html=1;exitX=0.5;exitY=0;exitDx=0;exitDy=0;strokeWidth=2;strokeColor=#0000FF;" edge="1" parent="1" source="BvtwiJHm_yUEEP929_Tn-14" target="BvtwiJHm_yUEEP929_Tn-3">
          <mxGeometry relative="1" as="geometry">
            <Array as="points">
              <mxPoint x="2237" y="500" />
              <mxPoint x="2371" y="500" />
              <mxPoint x="2371" y="625" />
            </Array>
          </mxGeometry>
        </mxCell>
        <mxCell id="BvtwiJHm_yUEEP929_Tn-12" style="edgeStyle=orthogonalEdgeStyle;rounded=0;orthogonalLoop=1;jettySize=auto;html=1;strokeWidth=2;strokeColor=#0000FF;" edge="1" parent="1" source="BvtwiJHm_yUEEP929_Tn-14" target="BvtwiJHm_yUEEP929_Tn-34">
          <mxGeometry relative="1" as="geometry">
            <Array as="points">
              <mxPoint x="2208" y="522" />
            </Array>
          </mxGeometry>
        </mxCell>
        <mxCell id="BvtwiJHm_yUEEP929_Tn-13" style="edgeStyle=orthogonalEdgeStyle;rounded=0;orthogonalLoop=1;jettySize=auto;html=1;strokeWidth=2;strokeColor=#0000FF;" edge="1" parent="1" source="BvtwiJHm_yUEEP929_Tn-14" target="BvtwiJHm_yUEEP929_Tn-38">
          <mxGeometry relative="1" as="geometry">
            <Array as="points">
              <mxPoint x="2237" y="667" />
              <mxPoint x="2125" y="667" />
              <mxPoint x="2125" y="796" />
            </Array>
          </mxGeometry>
        </mxCell>
        <mxCell id="BvtwiJHm_yUEEP929_Tn-14" value="Tag" style="swimlane;fontStyle=0;childLayout=stackLayout;horizontal=1;startSize=26;fillColor=none;horizontalStack=0;resizeParent=1;resizeParentMax=0;resizeLast=0;collapsible=1;marginBottom=0;" vertex="1" parent="1">
          <mxGeometry x="2167" y="543" width="140" height="104" as="geometry" />
        </mxCell>
        <mxCell id="BvtwiJHm_yUEEP929_Tn-15" value="parent&#xa;" style="text;strokeColor=none;fillColor=none;align=left;verticalAlign=top;spacingLeft=4;spacingRight=4;overflow=hidden;rotatable=0;points=[[0,0.5],[1,0.5]];portConstraint=eastwest;" vertex="1" parent="BvtwiJHm_yUEEP929_Tn-14">
          <mxGeometry y="26" width="140" height="26" as="geometry" />
        </mxCell>
        <mxCell id="BvtwiJHm_yUEEP929_Tn-16" value="category" style="text;strokeColor=none;fillColor=none;align=left;verticalAlign=top;spacingLeft=4;spacingRight=4;overflow=hidden;rotatable=0;points=[[0,0.5],[1,0.5]];portConstraint=eastwest;" vertex="1" parent="BvtwiJHm_yUEEP929_Tn-14">
          <mxGeometry y="52" width="140" height="26" as="geometry" />
        </mxCell>
        <mxCell id="BvtwiJHm_yUEEP929_Tn-17" style="edgeStyle=orthogonalEdgeStyle;rounded=0;orthogonalLoop=1;jettySize=auto;html=1;strokeWidth=2;strokeColor=#0000FF;" edge="1" parent="BvtwiJHm_yUEEP929_Tn-14" source="BvtwiJHm_yUEEP929_Tn-14" target="BvtwiJHm_yUEEP929_Tn-15">
          <mxGeometry relative="1" as="geometry">
            <Array as="points">
              <mxPoint x="91" y="-18" />
              <mxPoint x="171" y="-18" />
              <mxPoint x="171" y="39" />
            </Array>
          </mxGeometry>
        </mxCell>
        <mxCell id="BvtwiJHm_yUEEP929_Tn-18" value="ancestors" style="text;strokeColor=none;fillColor=none;align=left;verticalAlign=top;spacingLeft=4;spacingRight=4;overflow=hidden;rotatable=0;points=[[0,0.5],[1,0.5]];portConstraint=eastwest;" vertex="1" parent="BvtwiJHm_yUEEP929_Tn-14">
          <mxGeometry y="78" width="140" height="26" as="geometry" />
        </mxCell>
        <mxCell id="BvtwiJHm_yUEEP929_Tn-19" style="edgeStyle=orthogonalEdgeStyle;rounded=0;orthogonalLoop=1;jettySize=auto;html=1;strokeWidth=2;strokeColor=#0000FF;" edge="1" parent="BvtwiJHm_yUEEP929_Tn-14" source="BvtwiJHm_yUEEP929_Tn-14" target="BvtwiJHm_yUEEP929_Tn-18">
          <mxGeometry relative="1" as="geometry">
            <Array as="points">
              <mxPoint x="88" y="124" />
              <mxPoint x="173" y="124" />
              <mxPoint x="173" y="91" />
            </Array>
          </mxGeometry>
        </mxCell>
        <mxCell id="BvtwiJHm_yUEEP929_Tn-20" style="edgeStyle=orthogonalEdgeStyle;rounded=0;orthogonalLoop=1;jettySize=auto;html=1;strokeWidth=2;strokeColor=#333333;" edge="1" parent="1" source="BvtwiJHm_yUEEP929_Tn-21" target="BvtwiJHm_yUEEP929_Tn-5">
          <mxGeometry relative="1" as="geometry">
            <Array as="points">
              <mxPoint x="2246" y="713" />
              <mxPoint x="2381" y="713" />
              <mxPoint x="2381" y="677" />
            </Array>
          </mxGeometry>
        </mxCell>
        <mxCell id="BvtwiJHm_yUEEP929_Tn-21" value="Account" style="swimlane;fontStyle=0;childLayout=stackLayout;horizontal=1;startSize=26;fillColor=none;horizontalStack=0;resizeParent=1;resizeParentMax=0;resizeLast=0;collapsible=1;marginBottom=0;" vertex="1" parent="1">
          <mxGeometry x="2176" y="752" width="140" height="52" as="geometry" />
        </mxCell>
        <mxCell id="BvtwiJHm_yUEEP929_Tn-22" style="edgeStyle=orthogonalEdgeStyle;rounded=0;orthogonalLoop=1;jettySize=auto;html=1;exitX=0.5;exitY=0;exitDx=0;exitDy=0;strokeWidth=2;strokeColor=#0000FF;" edge="1" parent="1" source="BvtwiJHm_yUEEP929_Tn-23" target="BvtwiJHm_yUEEP929_Tn-6">
          <mxGeometry relative="1" as="geometry" />
        </mxCell>
        <mxCell id="BvtwiJHm_yUEEP929_Tn-23" value="Agency level" style="swimlane;fontStyle=0;childLayout=stackLayout;horizontal=1;startSize=26;fillColor=none;horizontalStack=0;resizeParent=1;resizeParentMax=0;resizeLast=0;collapsible=1;marginBottom=0;" vertex="1" parent="1">
          <mxGeometry x="2663" y="723" width="140" height="52" as="geometry" />
        </mxCell>
        <mxCell id="BvtwiJHm_yUEEP929_Tn-24" style="edgeStyle=orthogonalEdgeStyle;rounded=0;orthogonalLoop=1;jettySize=auto;html=1;strokeWidth=2;strokeColor=#333333;" edge="1" parent="1" source="BvtwiJHm_yUEEP929_Tn-25" target="BvtwiJHm_yUEEP929_Tn-10">
          <mxGeometry relative="1" as="geometry">
            <Array as="points">
              <mxPoint x="2248" y="835" />
              <mxPoint x="2410" y="835" />
              <mxPoint x="2410" y="755" />
            </Array>
          </mxGeometry>
        </mxCell>
        <mxCell id="BvtwiJHm_yUEEP929_Tn-25" value="Location" style="swimlane;fontStyle=0;childLayout=stackLayout;horizontal=1;startSize=26;fillColor=none;horizontalStack=0;resizeParent=1;resizeParentMax=0;resizeLast=0;collapsible=1;marginBottom=0;" vertex="1" parent="1">
          <mxGeometry x="2176" y="860" width="140" height="52" as="geometry" />
        </mxCell>
        <mxCell id="BvtwiJHm_yUEEP929_Tn-26" value="Ethnic" style="swimlane;fontStyle=0;childLayout=stackLayout;horizontal=1;startSize=26;fillColor=none;horizontalStack=0;resizeParent=1;resizeParentMax=0;resizeLast=0;collapsible=1;marginBottom=0;" vertex="1" parent="1">
          <mxGeometry x="2369" y="1008" width="140" height="52" as="geometry" />
        </mxCell>
        <mxCell id="BvtwiJHm_yUEEP929_Tn-27" value="nation" style="text;strokeColor=none;fillColor=none;align=left;verticalAlign=top;spacingLeft=4;spacingRight=4;overflow=hidden;rotatable=0;points=[[0,0.5],[1,0.5]];portConstraint=eastwest;" vertex="1" parent="BvtwiJHm_yUEEP929_Tn-26">
          <mxGeometry y="26" width="140" height="26" as="geometry" />
        </mxCell>
        <mxCell id="BvtwiJHm_yUEEP929_Tn-28" style="edgeStyle=orthogonalEdgeStyle;rounded=0;orthogonalLoop=1;jettySize=auto;html=1;strokeWidth=2;fontColor=#0000FF;labelBackgroundColor=#0000FF;strokeColor=#0000FF;" edge="1" parent="1" source="BvtwiJHm_yUEEP929_Tn-30" target="BvtwiJHm_yUEEP929_Tn-27">
          <mxGeometry relative="1" as="geometry" />
        </mxCell>
        <mxCell id="BvtwiJHm_yUEEP929_Tn-29" style="edgeStyle=orthogonalEdgeStyle;rounded=0;orthogonalLoop=1;jettySize=auto;html=1;entryX=0;entryY=0.75;entryDx=0;entryDy=0;strokeWidth=2;strokeColor=#0000FF;" edge="1" parent="1" source="BvtwiJHm_yUEEP929_Tn-30" target="BvtwiJHm_yUEEP929_Tn-31">
          <mxGeometry relative="1" as="geometry" />
        </mxCell>
        <mxCell id="BvtwiJHm_yUEEP929_Tn-30" value="Nation" style="swimlane;fontStyle=0;childLayout=stackLayout;horizontal=1;startSize=26;fillColor=none;horizontalStack=0;resizeParent=1;resizeParentMax=0;resizeLast=0;collapsible=1;marginBottom=0;" vertex="1" parent="1">
          <mxGeometry x="2501" y="907" width="140" height="52" as="geometry" />
        </mxCell>
        <mxCell id="BvtwiJHm_yUEEP929_Tn-31" value="monetaryUnit" style="swimlane;fontStyle=0;childLayout=stackLayout;horizontal=1;startSize=26;fillColor=none;horizontalStack=0;resizeParent=1;resizeParentMax=0;resizeLast=0;collapsible=1;marginBottom=0;" vertex="1" parent="1">
          <mxGeometry x="2636" y="1008" width="140" height="52" as="geometry" />
        </mxCell>
        <mxCell id="BvtwiJHm_yUEEP929_Tn-32" value="nation" style="text;strokeColor=none;fillColor=none;align=left;verticalAlign=top;spacingLeft=4;spacingRight=4;overflow=hidden;rotatable=0;points=[[0,0.5],[1,0.5]];portConstraint=eastwest;" vertex="1" parent="BvtwiJHm_yUEEP929_Tn-31">
          <mxGeometry y="26" width="140" height="26" as="geometry" />
        </mxCell>
        <mxCell id="BvtwiJHm_yUEEP929_Tn-33" value="Position" style="swimlane;fontStyle=0;childLayout=stackLayout;horizontal=1;startSize=26;fillColor=none;horizontalStack=0;resizeParent=1;resizeParentMax=0;resizeLast=0;collapsible=1;marginBottom=0;" vertex="1" parent="1">
          <mxGeometry x="1917" y="485" width="140" height="52" as="geometry" />
        </mxCell>
        <mxCell id="BvtwiJHm_yUEEP929_Tn-34" value="tag" style="text;strokeColor=none;fillColor=none;align=left;verticalAlign=top;spacingLeft=4;spacingRight=4;overflow=hidden;rotatable=0;points=[[0,0.5],[1,0.5]];portConstraint=eastwest;" vertex="1" parent="BvtwiJHm_yUEEP929_Tn-33">
          <mxGeometry y="26" width="140" height="26" as="geometry" />
        </mxCell>
        <mxCell id="BvtwiJHm_yUEEP929_Tn-35" style="edgeStyle=orthogonalEdgeStyle;rounded=0;orthogonalLoop=1;jettySize=auto;html=1;strokeWidth=2;strokeColor=#0000FF;" edge="1" parent="1" source="BvtwiJHm_yUEEP929_Tn-36" target="BvtwiJHm_yUEEP929_Tn-16">
          <mxGeometry relative="1" as="geometry" />
        </mxCell>
        <mxCell id="BvtwiJHm_yUEEP929_Tn-36" value="tagCategory" style="swimlane;fontStyle=0;childLayout=stackLayout;horizontal=1;startSize=26;fillColor=none;horizontalStack=0;resizeParent=1;resizeParentMax=0;resizeLast=0;collapsible=1;marginBottom=0;" vertex="1" parent="1">
          <mxGeometry x="1922" y="648" width="140" height="52" as="geometry" />
        </mxCell>
        <mxCell id="BvtwiJHm_yUEEP929_Tn-37" value="pattern.component" style="swimlane;fontStyle=0;childLayout=stackLayout;horizontal=1;startSize=26;fillColor=none;horizontalStack=0;resizeParent=1;resizeParentMax=0;resizeLast=0;collapsible=1;marginBottom=0;" vertex="1" parent="1">
          <mxGeometry x="1939" y="757" width="140" height="52" as="geometry" />
        </mxCell>
        <mxCell id="BvtwiJHm_yUEEP929_Tn-38" value="tag" style="text;strokeColor=none;fillColor=none;align=left;verticalAlign=top;spacingLeft=4;spacingRight=4;overflow=hidden;rotatable=0;points=[[0,0.5],[1,0.5]];portConstraint=eastwest;" vertex="1" parent="BvtwiJHm_yUEEP929_Tn-37">
          <mxGeometry y="26" width="140" height="26" as="geometry" />
        </mxCell>
        <mxCell id="BvtwiJHm_yUEEP929_Tn-39" value="smsBrandname" style="swimlane;fontStyle=0;childLayout=stackLayout;horizontal=1;startSize=26;fillColor=none;horizontalStack=0;resizeParent=1;resizeParentMax=0;resizeLast=0;collapsible=1;marginBottom=0;" vertex="1" parent="1">
          <mxGeometry x="2663" y="582" width="139" height="52" as="geometry" />
        </mxCell>
        <mxCell id="BvtwiJHm_yUEEP929_Tn-40" value="agency" style="text;strokeColor=none;fillColor=none;align=left;verticalAlign=top;spacingLeft=4;spacingRight=4;overflow=hidden;rotatable=0;points=[[0,0.5],[1,0.5]];portConstraint=eastwest;" vertex="1" parent="BvtwiJHm_yUEEP929_Tn-39">
          <mxGeometry y="26" width="139" height="26" as="geometry" />
        </mxCell>
        <mxCell id="BvtwiJHm_yUEEP929_Tn-41" value="" style="line;strokeWidth=4;html=1;strokeColor=#FF3333;align=left;" vertex="1" parent="1">
          <mxGeometry x="1912" y="907.5" width="64" height="10" as="geometry" />
        </mxCell>
        <mxCell id="BvtwiJHm_yUEEP929_Tn-42" value="&lt;span style=&quot;font-size: 14px&quot;&gt;&lt;b&gt;&lt;font color=&quot;#ff3333&quot;&gt;Self&lt;/font&gt;&lt;/b&gt;&lt;/span&gt;" style="text;html=1;align=left;verticalAlign=middle;resizable=0;points=[];autosize=1;" vertex="1" parent="1">
          <mxGeometry x="1984" y="903" width="36" height="19" as="geometry" />
        </mxCell>
        <mxCell id="BvtwiJHm_yUEEP929_Tn-43" value="" style="line;strokeWidth=4;html=1;strokeColor=#333333;align=left;" vertex="1" parent="1">
          <mxGeometry x="1912" y="938.5" width="64" height="10" as="geometry" />
        </mxCell>
        <mxCell id="BvtwiJHm_yUEEP929_Tn-44" value="&lt;font style=&quot;font-size: 14px&quot;&gt;&lt;b&gt;Send&lt;/b&gt;&lt;/font&gt;" style="text;html=1;align=left;verticalAlign=middle;resizable=0;points=[];autosize=1;" vertex="1" parent="1">
          <mxGeometry x="1984" y="936" width="44" height="19" as="geometry" />
        </mxCell>
        <mxCell id="BvtwiJHm_yUEEP929_Tn-45" value="" style="line;strokeWidth=4;html=1;align=left;strokeColor=#FF8000;" vertex="1" parent="1">
          <mxGeometry x="1914" y="966.5" width="64" height="10" as="geometry" />
        </mxCell>
        <mxCell id="BvtwiJHm_yUEEP929_Tn-46" value="&lt;font style=&quot;font-size: 14px&quot;&gt;&lt;b&gt;Done Update&lt;/b&gt;&lt;/font&gt;" style="text;html=1;align=left;verticalAlign=middle;resizable=0;points=[];autosize=1;fontColor=#FF8000;" vertex="1" parent="1">
          <mxGeometry x="1984" y="962" width="96" height="19" as="geometry" />
        </mxCell>
        <mxCell id="BvtwiJHm_yUEEP929_Tn-47" value="" style="line;strokeWidth=4;html=1;align=left;fontColor=#FF00FF;strokeColor=#FF00FF;" vertex="1" parent="1">
          <mxGeometry x="1914" y="1001.5" width="64" height="10" as="geometry" />
        </mxCell>
        <mxCell id="BvtwiJHm_yUEEP929_Tn-48" value="&lt;font style=&quot;font-size: 14px&quot;&gt;&lt;b&gt;Done Delete&lt;/b&gt;&lt;/font&gt;" style="text;html=1;align=left;verticalAlign=middle;resizable=0;points=[];autosize=1;fontColor=#FF00FF;" vertex="1" parent="1">
          <mxGeometry x="1984" y="997" width="91" height="19" as="geometry" />
        </mxCell>
        <mxCell id="BvtwiJHm_yUEEP929_Tn-49" value="" style="line;strokeWidth=4;html=1;strokeColor=#0000FF;align=left;" vertex="1" parent="1">
          <mxGeometry x="1912" y="1036.5" width="64" height="10" as="geometry" />
        </mxCell>
        <mxCell id="BvtwiJHm_yUEEP929_Tn-50" value="&lt;font style=&quot;font-size: 14px&quot; color=&quot;#0000ff&quot;&gt;&lt;b&gt;OK&lt;/b&gt;&lt;/font&gt;" style="text;html=1;align=left;verticalAlign=middle;resizable=0;points=[];autosize=1;" vertex="1" parent="1">
          <mxGeometry x="1984" y="1032" width="31" height="19" as="geometry" />
        </mxCell>
        <mxCell id="BvtwiJHm_yUEEP929_Tn-51" value="" style="group" vertex="1" connectable="0" parent="1">
          <mxGeometry x="2345" y="820" width="30" height="30" as="geometry" />
        </mxCell>
        <mxCell id="BvtwiJHm_yUEEP929_Tn-52" value="" style="group" vertex="1" connectable="0" parent="BvtwiJHm_yUEEP929_Tn-51">
          <mxGeometry width="30" height="30" as="geometry" />
        </mxCell>
        <mxCell id="BvtwiJHm_yUEEP929_Tn-53" value="" style="ellipse;html=1;shape=endState;fillColor=#000000;strokeColor=#ff0000;fontColor=#FF00FF;align=left;" vertex="1" parent="BvtwiJHm_yUEEP929_Tn-52">
          <mxGeometry width="30" height="30" as="geometry" />
        </mxCell>
        <mxCell id="BvtwiJHm_yUEEP929_Tn-54" value="" style="shape=umlDestroy;whiteSpace=wrap;html=1;strokeWidth=3;fontColor=#FF00FF;align=left;strokeColor=#FF3333;" vertex="1" parent="BvtwiJHm_yUEEP929_Tn-52">
          <mxGeometry x="7.25" y="7.25" width="15.5" height="15.5" as="geometry" />
        </mxCell>
        <mxCell id="BvtwiJHm_yUEEP929_Tn-55" value="" style="group" vertex="1" connectable="0" parent="1">
          <mxGeometry x="2332" y="698" width="30" height="30" as="geometry" />
        </mxCell>
        <mxCell id="BvtwiJHm_yUEEP929_Tn-56" value="" style="group" vertex="1" connectable="0" parent="BvtwiJHm_yUEEP929_Tn-55">
          <mxGeometry width="30" height="30" as="geometry" />
        </mxCell>
        <mxCell id="BvtwiJHm_yUEEP929_Tn-57" value="" style="ellipse;html=1;shape=endState;fillColor=#000000;strokeColor=#ff0000;fontColor=#FF00FF;align=left;" vertex="1" parent="BvtwiJHm_yUEEP929_Tn-56">
          <mxGeometry width="30" height="30" as="geometry" />
        </mxCell>
        <mxCell id="BvtwiJHm_yUEEP929_Tn-58" value="" style="shape=umlDestroy;whiteSpace=wrap;html=1;strokeWidth=3;fontColor=#FF00FF;align=left;strokeColor=#FF3333;" vertex="1" parent="BvtwiJHm_yUEEP929_Tn-56">
          <mxGeometry x="7.25" y="7.25" width="15.5" height="15.5" as="geometry" />
        </mxCell>
        <mxCell id="BvtwiJHm_yUEEP929_Tn-59" value="" style="line;strokeWidth=4;html=1;strokeColor=#333333;align=left;" vertex="1" parent="1">
          <mxGeometry x="1912" y="1076.5" width="64" height="10" as="geometry" />
        </mxCell>
        <mxCell id="BvtwiJHm_yUEEP929_Tn-60" value="&lt;span style=&quot;font-size: 14px&quot;&gt;&lt;b&gt;Won&#39;t do&lt;/b&gt;&lt;/span&gt;" style="text;html=1;align=left;verticalAlign=middle;resizable=0;points=[];autosize=1;" vertex="1" parent="1">
          <mxGeometry x="1984" y="1072" width="69" height="19" as="geometry" />
        </mxCell>
        <mxCell id="BvtwiJHm_yUEEP929_Tn-61" value="" style="group" vertex="1" connectable="0" parent="1">
          <mxGeometry x="1929" y="1066.5" width="30" height="30" as="geometry" />
        </mxCell>
        <mxCell id="BvtwiJHm_yUEEP929_Tn-62" value="" style="group" vertex="1" connectable="0" parent="BvtwiJHm_yUEEP929_Tn-61">
          <mxGeometry width="30" height="30" as="geometry" />
        </mxCell>
        <mxCell id="BvtwiJHm_yUEEP929_Tn-63" value="" style="ellipse;html=1;shape=endState;fillColor=#000000;strokeColor=#ff0000;fontColor=#FF00FF;align=left;" vertex="1" parent="BvtwiJHm_yUEEP929_Tn-62">
          <mxGeometry width="30" height="30" as="geometry" />
        </mxCell>
        <mxCell id="BvtwiJHm_yUEEP929_Tn-64" value="" style="shape=umlDestroy;whiteSpace=wrap;html=1;strokeWidth=3;fontColor=#FF00FF;align=left;strokeColor=#FF3333;" vertex="1" parent="BvtwiJHm_yUEEP929_Tn-62">
          <mxGeometry x="7.25" y="7.25" width="15.5" height="15.5" as="geometry" />
        </mxCell>
      </root>
    </mxGraphModel>
  </diagram>
</mxfile>
